<svg width="132" height="144" viewBox="0 0 132 144" fill="none" xmlns="http://www.w3.org/2000/svg">
<rect y="6" width="131.589" height="137.536" fill="#753162"/>
<path d="M84.688 39.616L85.072 39.712C86.672 40.672 88.048 41.76 89.2 42.976C90.416 44.128 91.504 45.376 92.464 46.72C93.488 48 94.288 49.408 94.864 50.944C97.296 56.832 95.184 63.424 88.528 70.72C85.712 73.792 82.544 76.416 79.024 78.592C79.92 79.232 80.752 79.712 81.52 80.032C82.352 80.288 83.504 80.832 84.976 81.664C86.448 82.432 87.408 83.936 87.856 86.176C88.304 88.352 88.176 90.816 87.472 93.568C86.832 96.32 85.616 99.168 83.824 102.112C82.096 104.992 79.824 107.584 77.008 109.888C70.608 115.2 63.184 117.44 54.736 116.608C53.52 116.608 52.752 116.512 52.432 116.32C52.112 116.128 51.856 115.968 51.664 115.84C51.472 115.712 51.056 115.616 50.416 115.552C48.816 116.832 46.992 117.632 44.944 117.952C42.896 118.272 40.944 118.112 39.088 117.472C37.296 116.832 35.76 115.744 34.48 114.208C33.264 112.672 32.656 110.656 32.656 108.16C32.848 106.496 33.168 105.184 33.616 104.224C33.424 103.648 33.328 102.944 33.328 102.112C35.504 90.528 37.552 81.664 39.472 75.52C43.376 63.296 47.6 54.08 52.144 47.872C55.856 42.624 61.008 39.232 67.6 37.696C73.936 36.224 79.632 36.864 84.688 39.616ZM54.832 106.624C55.6 106.432 56.24 106.4 56.752 106.528C57.328 106.592 58 106.56 58.768 106.432C60.624 106.24 63.12 105.088 66.256 102.976C68.24 100.992 69.296 99.04 69.424 97.12C69.552 95.2 69.264 93.984 68.56 93.472C67.856 92.896 66.896 92.608 65.68 92.608C64.528 92.608 63.216 92.8 61.744 93.184C60.336 93.504 58.96 93.696 57.616 93.76V93.952C57.296 95.232 56.976 96.352 56.656 97.312C56.336 98.272 56.048 99.2 55.792 100.096C55.216 102.208 54.768 104.384 54.448 106.624H54.832ZM72.688 56.704C70.768 56.448 68.688 57.952 66.448 61.216C65.04 63.264 63.952 66.368 63.184 70.528C64.528 69.952 65.84 69.472 67.12 69.088C68.464 68.64 69.712 68.16 70.864 67.648C73.68 66.432 75.696 64.96 76.912 63.232C78.32 61.568 78.768 60.16 78.256 59.008C77.488 57.984 76.24 57.056 74.512 56.224C74 56.672 73.392 56.832 72.688 56.704ZM71.248 56.32H71.536H71.248Z" fill="#FFFCFC"/>
</svg>
