<svg width="622" height="192" viewBox="0 0 622 192" fill="none" xmlns="http://www.w3.org/2000/svg">
<rect width="622" height="192" fill="#461E3B"/>
<path d="M93.64 71.712H84.712C83.688 71.712 83.176 71.968 83.176 72.48V132H73.096C70.92 132 69.48 131.68 68.776 131.04C68.136 130.336 67.816 128.896 67.816 126.72V68.064C67.816 65.824 68.136 64.352 68.776 63.648C69.48 62.944 70.92 62.592 73.096 62.592H93.64V71.712ZM99.016 101.856H108.136C110.76 101.856 112.456 102.464 113.224 103.68C113.992 104.832 114.376 106.688 114.376 109.248V123.456C114.376 127.68 113.256 130.272 111.016 131.232C109.928 131.744 108.552 132 106.888 132H87.016V122.976H95.08C97.704 122.976 99.016 122.048 99.016 120.192V101.856ZM97.768 62.592H106.888C109.448 62.592 111.08 63.168 111.784 64.32C112.552 65.472 112.936 67.36 112.936 69.984V88.416C112.936 92.128 112.264 94.816 110.92 96.48C109.64 98.144 106.92 98.976 102.76 98.976H87.016V89.856H94.12C95.72 89.856 96.712 89.472 97.096 88.704C97.544 87.936 97.768 86.752 97.768 85.152V62.592ZM142.051 132H131.971C129.795 132 128.355 131.648 127.651 130.944C127.011 130.24 126.691 128.768 126.691 126.528V68.064C126.691 65.824 127.011 64.352 127.651 63.648C128.355 62.944 129.795 62.592 131.971 62.592H142.051V132ZM171.715 118.56V126.72C171.715 128.896 171.363 130.336 170.659 131.04C169.955 131.68 168.483 132 166.243 132H145.891V118.56H171.715ZM165.955 90.24V96C165.955 98.304 165.731 99.776 165.283 100.416C164.835 100.992 163.555 101.28 161.443 101.28H145.891V90.24H165.955ZM170.755 62.592V70.752C170.755 72.928 170.403 74.368 169.699 75.072C168.995 75.712 167.523 76.032 165.283 76.032H145.891V62.592H170.755ZM177.869 62.592H207.917C208.941 62.592 209.773 62.944 210.413 63.648C211.053 64.352 211.373 65.28 211.373 66.432V132H201.293C199.117 132 197.677 131.648 196.973 130.944C196.333 130.24 196.013 128.768 196.013 126.528V74.592H180.653C178.797 74.592 177.869 73.056 177.869 69.984V62.592ZM215.213 62.592H230.573C232.429 62.592 233.357 64.128 233.357 67.2V74.592H215.213V62.592ZM266.796 71.712H257.868C256.844 71.712 256.332 71.968 256.332 72.48V132H246.252C244.076 132 242.636 131.648 241.932 130.944C241.292 130.24 240.972 128.768 240.972 126.528V68.064C240.972 65.824 241.292 64.352 241.932 63.648C242.636 62.944 244.076 62.592 246.252 62.592H266.796V71.712ZM270.636 62.592H280.716C282.892 62.592 284.3 62.944 284.94 63.648C285.644 64.352 285.996 65.824 285.996 68.064V126.432C285.996 128.672 285.644 130.176 284.94 130.944C284.236 131.648 282.828 132 280.716 132H270.636V99.84H260.172V90.72H270.636V62.592ZM352.364 62.592V126.528C352.364 128.768 352.012 130.24 351.308 130.944C350.668 131.648 349.26 132 347.084 132H333.452C329.676 132 327.18 131.424 325.964 130.272C324.812 129.12 323.788 126.144 322.892 121.344C321.1 111.872 318.508 96.576 315.116 75.456C314.86 73.856 314.476 72.832 313.964 72.384C313.516 71.936 312.716 71.68 311.564 71.616H299.756V62.592H320.588C322.188 62.592 323.468 62.784 324.428 63.168C325.388 63.552 326.156 64.384 326.732 65.664C327.372 66.88 327.788 68.064 327.98 69.216C328.236 70.368 328.492 71.712 328.748 73.248C329.068 75.104 329.516 77.824 330.092 81.408C331.18 88.64 332.876 98.848 335.18 112.032C336.076 117.664 336.684 120.832 337.004 121.536C337.388 122.176 338.028 122.56 338.924 122.688V66.432C338.924 65.28 339.244 64.352 339.884 63.648C340.524 62.944 341.356 62.592 342.38 62.592H352.364ZM299.756 74.976H309.74C310.764 74.976 311.596 75.328 312.236 76.032C312.876 76.736 313.196 77.664 313.196 78.816V126.528C313.196 128.704 312.908 130.176 312.332 130.944C311.756 131.648 310.604 132 308.876 132H299.756V74.976ZM381.489 132H371.409C369.233 132 367.793 131.648 367.089 130.944C366.449 130.24 366.129 128.768 366.129 126.528V68.064C366.129 65.824 366.449 64.352 367.089 63.648C367.793 62.944 369.233 62.592 371.409 62.592H381.489V132ZM421.015 71.712H412.087C411.063 71.712 410.551 71.968 410.551 72.48V132H400.471C398.295 132 396.855 131.648 396.151 130.944C395.511 130.24 395.191 128.768 395.191 126.528V68.064C395.191 65.824 395.511 64.352 396.151 63.648C396.855 62.944 398.295 62.592 400.471 62.592H421.015V71.712ZM424.855 62.592H434.935C437.111 62.592 438.519 62.944 439.159 63.648C439.863 64.352 440.215 65.824 440.215 68.064V126.432C440.215 128.672 439.863 130.176 439.159 130.944C438.455 131.648 437.047 132 434.935 132H424.855V99.84H414.391V90.72H424.855V62.592ZM466.619 62.592H496.667C497.691 62.592 498.523 62.944 499.163 63.648C499.803 64.352 500.123 65.28 500.123 66.432V132H490.043C487.867 132 486.427 131.648 485.723 130.944C485.083 130.24 484.763 128.768 484.763 126.528V74.592H469.403C467.547 74.592 466.619 73.056 466.619 69.984V62.592ZM503.963 62.592H519.323C521.179 62.592 522.107 64.128 522.107 67.2V74.592H503.963V62.592ZM535.002 62.592C537.178 62.592 538.65 62.944 539.418 63.648C540.25 64.352 540.826 65.824 541.146 68.064L547.482 119.136C547.674 120.672 548.09 121.664 548.73 122.112C549.37 122.56 550.394 122.816 551.802 122.88L551.706 132H547.482C541.85 132 538.138 130.624 536.346 127.872C535.386 126.4 534.714 124.96 534.33 123.552C533.946 122.08 533.594 120.032 533.274 117.408L525.786 62.592H535.002ZM560.058 132H554.106L564.57 68.064C564.826 65.888 565.37 64.448 566.202 63.744C567.034 62.976 568.538 62.592 570.714 62.592H579.834L570.234 119.328C569.786 121.76 569.402 123.552 569.082 124.704C568.826 125.856 568.346 127.104 567.642 128.448C566.938 129.792 565.978 130.72 564.762 131.232C563.546 131.744 561.978 132 560.058 132Z" fill="#FFFCFC"/>
</svg>
